<svg xmlns="http://www.w3.org/2000/svg" xmlns:xlink="http://www.w3.org/1999/xlink" width="500" zoomAndPan="magnify" viewBox="0 0 375 374.999991" height="500" preserveAspectRatio="xMidYMid meet" version="1.0"><defs><g/><clipPath id="e3df2445d6"><path d="M 143 37.5 L 312.871094 37.5 L 312.871094 250.433594 L 143 250.433594 Z M 143 37.5 " clip-rule="nonzero"/></clipPath><clipPath id="36696c6ea5"><path d="M 72.121094 89 L 235 89 L 235 250.433594 L 72.121094 250.433594 Z M 72.121094 89 " clip-rule="nonzero"/></clipPath></defs><g clip-path="url(#e3df2445d6)"><path fill="#ffffff" d="M 242.066406 179.238281 C 261.566406 179.238281 279.1875 171.34375 292.136719 158.390625 C 305.039062 145.585938 312.835938 127.964844 312.835938 108.324219 C 312.835938 88.824219 304.941406 71.203125 292.136719 58.253906 C 279.1875 45.304688 261.515625 37.503906 242.066406 37.503906 L 143.132812 37.503906 L 143.132812 65.714844 L 242.066406 65.714844 C 253.671875 65.714844 264.308594 70.53125 272.109375 78.234375 C 279.859375 86.03125 284.625 96.625 284.625 108.273438 C 284.625 120.070312 279.8125 130.660156 272.109375 138.316406 C 264.308594 146.210938 253.71875 150.976562 242.066406 150.976562 L 143.183594 150.976562 L 143.183594 179.1875 L 193.347656 179.1875 L 255.113281 250.34375 L 292.378906 250.34375 L 230.65625 179.238281 Z M 242.066406 179.238281 " fill-opacity="1" fill-rule="nonzero"/></g><g clip-path="url(#36696c6ea5)"><path fill="#ffffff" d="M 152.570312 222.230469 C 138.222656 222.230469 125.273438 216.402344 115.835938 206.824219 C 106.257812 197.484375 100.429688 184.292969 100.429688 169.945312 C 100.429688 155.742188 106.257812 142.648438 115.835938 133.210938 C 125.175781 123.632812 138.222656 117.808594 152.570312 117.808594 L 234.703125 117.808594 L 234.703125 89.449219 L 152.667969 89.449219 C 130.570312 89.449219 110.398438 98.5 95.90625 113.234375 C 81.171875 127.773438 72.121094 147.945312 72.121094 169.945312 C 72.121094 192.1875 81.171875 212.359375 95.90625 226.851562 C 110.492188 241.582031 130.664062 250.632812 152.667969 250.632812 L 202.207031 250.632812 L 202.207031 250.488281 L 177.75 222.277344 L 152.570312 222.277344 Z M 152.570312 222.230469 " fill-opacity="1" fill-rule="nonzero"/></g><g fill="#ffffff" fill-opacity="1"><g transform="translate(64.848777, 338.996794)"><g><path d="M 23.59375 -11.671875 L 16.8125 -11.671875 L 16.8125 0 L 4.390625 0 L 4.390625 -43.90625 L 24.46875 -43.90625 C 28.4375 -43.90625 31.882812 -43.25 34.8125 -41.9375 C 37.738281 -40.625 40 -38.742188 41.59375 -36.296875 C 43.1875 -33.847656 43.984375 -30.972656 43.984375 -27.671875 C 43.984375 -24.484375 43.238281 -21.707031 41.75 -19.34375 C 40.257812 -16.988281 38.132812 -15.140625 35.375 -13.796875 L 44.859375 0 L 31.5625 0 Z M 31.4375 -27.671875 C 31.4375 -29.710938 30.785156 -31.296875 29.484375 -32.421875 C 28.191406 -33.554688 26.269531 -34.125 23.71875 -34.125 L 16.8125 -34.125 L 16.8125 -21.265625 L 23.71875 -21.265625 C 26.269531 -21.265625 28.191406 -21.816406 29.484375 -22.921875 C 30.785156 -24.035156 31.4375 -25.617188 31.4375 -27.671875 Z M 31.4375 -27.671875 "/></g></g></g><g fill="#ffffff" fill-opacity="1"><g transform="translate(116.724709, 338.996794)"><g><path d="M 4.390625 -43.90625 L 16.8125 -43.90625 L 16.8125 0 L 4.390625 0 Z M 4.390625 -43.90625 "/></g></g></g><g fill="#ffffff" fill-opacity="1"><g transform="translate(143.447561, 338.996794)"><g><path d="M 26.28125 0.875 C 21.6875 0.875 17.554688 -0.09375 13.890625 -2.03125 C 10.234375 -3.976562 7.359375 -6.6875 5.265625 -10.15625 C 3.179688 -13.632812 2.140625 -17.566406 2.140625 -21.953125 C 2.140625 -26.347656 3.179688 -30.28125 5.265625 -33.75 C 7.359375 -37.21875 10.234375 -39.925781 13.890625 -41.875 C 17.554688 -43.820312 21.6875 -44.796875 26.28125 -44.796875 C 30.300781 -44.796875 33.921875 -44.082031 37.140625 -42.65625 C 40.359375 -41.238281 43.035156 -39.191406 45.171875 -36.515625 L 37.265625 -29.359375 C 34.421875 -32.785156 30.96875 -34.5 26.90625 -34.5 C 24.53125 -34.5 22.410156 -33.972656 20.546875 -32.921875 C 18.679688 -31.878906 17.238281 -30.40625 16.21875 -28.5 C 15.195312 -26.601562 14.6875 -24.421875 14.6875 -21.953125 C 14.6875 -19.484375 15.195312 -17.296875 16.21875 -15.390625 C 17.238281 -13.492188 18.679688 -12.019531 20.546875 -10.96875 C 22.410156 -9.925781 24.53125 -9.40625 26.90625 -9.40625 C 30.96875 -9.40625 34.421875 -11.117188 37.265625 -14.546875 L 45.171875 -7.40625 C 43.035156 -4.726562 40.359375 -2.675781 37.140625 -1.25 C 33.921875 0.164062 30.300781 0.875 26.28125 0.875 Z M 26.28125 0.875 "/></g></g></g><g fill="#ffffff" fill-opacity="1"><g transform="translate(195.198047, 338.996794)"><g><path d="M 46.171875 -43.90625 L 46.171875 0 L 33.75 0 L 33.75 -17.125 L 16.8125 -17.125 L 16.8125 0 L 4.390625 0 L 4.390625 -43.90625 L 16.8125 -43.90625 L 16.8125 -27.421875 L 33.75 -27.421875 L 33.75 -43.90625 Z M 46.171875 -43.90625 "/></g></g></g><g fill="#ffffff" fill-opacity="1"><g transform="translate(251.213909, 338.996794)"><g><path d="M 4.390625 -43.90625 L 16.8125 -43.90625 L 16.8125 0 L 4.390625 0 Z M 4.390625 -43.90625 "/></g></g></g><g fill="#ffffff" fill-opacity="1"><g transform="translate(277.936768, 338.996794)"><g><path d="M 39.640625 -9.59375 L 39.640625 0 L 4.390625 0 L 4.390625 -43.90625 L 38.828125 -43.90625 L 38.828125 -34.3125 L 16.6875 -34.3125 L 16.6875 -26.90625 L 36.203125 -26.90625 L 36.203125 -17.625 L 16.6875 -17.625 L 16.6875 -9.59375 Z M 39.640625 -9.59375 "/></g></g></g></svg>