<svg xmlns="http://www.w3.org/2000/svg" xmlns:xlink="http://www.w3.org/1999/xlink" width="500" zoomAndPan="magnify" viewBox="0 0 375 374.999991" height="500" preserveAspectRatio="xMidYMid meet" version="1.0"><defs><g/><clipPath id="6d035529d3"><path d="M 143 37.5 L 312.871094 37.5 L 312.871094 250.433594 L 143 250.433594 Z M 143 37.5 " clip-rule="nonzero"/></clipPath><clipPath id="f0a571bd22"><path d="M 72.121094 89 L 235 89 L 235 250.433594 L 72.121094 250.433594 Z M 72.121094 89 " clip-rule="nonzero"/></clipPath></defs><g clip-path="url(#6d035529d3)"><path fill="#000000" d="M 242.09375 179.058594 C 261.59375 179.058594 279.214844 171.171875 292.167969 158.238281 C 305.074219 145.449219 312.871094 127.851562 312.871094 108.234375 C 312.871094 88.761719 304.976562 71.160156 292.167969 58.226562 C 279.214844 45.292969 261.546875 37.503906 242.09375 37.503906 L 143.144531 37.503906 L 143.144531 65.679688 L 242.09375 65.679688 C 253.695312 65.679688 264.335938 70.488281 272.136719 78.183594 C 279.890625 85.972656 284.65625 96.550781 284.65625 108.183594 C 284.65625 119.964844 279.84375 130.542969 272.136719 138.1875 C 264.335938 146.074219 253.746094 150.835938 242.09375 150.835938 L 143.191406 150.835938 L 143.191406 179.011719 L 193.363281 179.011719 L 255.140625 250.074219 L 292.410156 250.074219 L 230.679688 179.058594 Z M 242.09375 179.058594 " fill-opacity="1" fill-rule="nonzero"/></g><g clip-path="url(#f0a571bd22)"><path fill="#000000" d="M 152.582031 221.996094 C 138.234375 221.996094 125.28125 216.175781 115.84375 206.609375 C 106.261719 197.28125 100.433594 184.105469 100.433594 169.777344 C 100.433594 155.59375 106.261719 142.515625 115.84375 133.09375 C 125.183594 123.523438 138.234375 117.707031 152.582031 117.707031 L 234.726562 117.707031 L 234.726562 89.386719 L 152.679688 89.386719 C 130.578125 89.386719 110.402344 98.425781 95.910156 113.136719 C 81.175781 127.660156 72.121094 147.804688 72.121094 169.777344 C 72.121094 191.992188 81.175781 212.140625 95.910156 226.613281 C 110.5 241.324219 130.671875 250.363281 152.679688 250.363281 L 202.222656 250.363281 L 202.222656 250.21875 L 177.765625 222.042969 L 152.582031 222.042969 Z M 152.582031 221.996094 " fill-opacity="1" fill-rule="nonzero"/></g><g fill="#000000" fill-opacity="1"><g transform="translate(64.848777, 338.996794)"><g><path d="M 23.59375 -11.671875 L 16.8125 -11.671875 L 16.8125 0 L 4.390625 0 L 4.390625 -43.90625 L 24.46875 -43.90625 C 28.4375 -43.90625 31.882812 -43.25 34.8125 -41.9375 C 37.738281 -40.625 40 -38.742188 41.59375 -36.296875 C 43.1875 -33.847656 43.984375 -30.972656 43.984375 -27.671875 C 43.984375 -24.484375 43.238281 -21.707031 41.75 -19.34375 C 40.257812 -16.988281 38.132812 -15.140625 35.375 -13.796875 L 44.859375 0 L 31.5625 0 Z M 31.4375 -27.671875 C 31.4375 -29.710938 30.785156 -31.296875 29.484375 -32.421875 C 28.191406 -33.554688 26.269531 -34.125 23.71875 -34.125 L 16.8125 -34.125 L 16.8125 -21.265625 L 23.71875 -21.265625 C 26.269531 -21.265625 28.191406 -21.816406 29.484375 -22.921875 C 30.785156 -24.035156 31.4375 -25.617188 31.4375 -27.671875 Z M 31.4375 -27.671875 "/></g></g></g><g fill="#000000" fill-opacity="1"><g transform="translate(116.724709, 338.996794)"><g><path d="M 4.390625 -43.90625 L 16.8125 -43.90625 L 16.8125 0 L 4.390625 0 Z M 4.390625 -43.90625 "/></g></g></g><g fill="#000000" fill-opacity="1"><g transform="translate(143.447561, 338.996794)"><g><path d="M 26.28125 0.875 C 21.6875 0.875 17.554688 -0.09375 13.890625 -2.03125 C 10.234375 -3.976562 7.359375 -6.6875 5.265625 -10.15625 C 3.179688 -13.632812 2.140625 -17.566406 2.140625 -21.953125 C 2.140625 -26.347656 3.179688 -30.28125 5.265625 -33.75 C 7.359375 -37.21875 10.234375 -39.925781 13.890625 -41.875 C 17.554688 -43.820312 21.6875 -44.796875 26.28125 -44.796875 C 30.300781 -44.796875 33.921875 -44.082031 37.140625 -42.65625 C 40.359375 -41.238281 43.035156 -39.191406 45.171875 -36.515625 L 37.265625 -29.359375 C 34.421875 -32.785156 30.96875 -34.5 26.90625 -34.5 C 24.53125 -34.5 22.410156 -33.972656 20.546875 -32.921875 C 18.679688 -31.878906 17.238281 -30.40625 16.21875 -28.5 C 15.195312 -26.601562 14.6875 -24.421875 14.6875 -21.953125 C 14.6875 -19.484375 15.195312 -17.296875 16.21875 -15.390625 C 17.238281 -13.492188 18.679688 -12.019531 20.546875 -10.96875 C 22.410156 -9.925781 24.53125 -9.40625 26.90625 -9.40625 C 30.96875 -9.40625 34.421875 -11.117188 37.265625 -14.546875 L 45.171875 -7.40625 C 43.035156 -4.726562 40.359375 -2.675781 37.140625 -1.25 C 33.921875 0.164062 30.300781 0.875 26.28125 0.875 Z M 26.28125 0.875 "/></g></g></g><g fill="#000000" fill-opacity="1"><g transform="translate(195.198047, 338.996794)"><g><path d="M 46.171875 -43.90625 L 46.171875 0 L 33.75 0 L 33.75 -17.125 L 16.8125 -17.125 L 16.8125 0 L 4.390625 0 L 4.390625 -43.90625 L 16.8125 -43.90625 L 16.8125 -27.421875 L 33.75 -27.421875 L 33.75 -43.90625 Z M 46.171875 -43.90625 "/></g></g></g><g fill="#000000" fill-opacity="1"><g transform="translate(251.213909, 338.996794)"><g><path d="M 4.390625 -43.90625 L 16.8125 -43.90625 L 16.8125 0 L 4.390625 0 Z M 4.390625 -43.90625 "/></g></g></g><g fill="#000000" fill-opacity="1"><g transform="translate(277.936768, 338.996794)"><g><path d="M 39.640625 -9.59375 L 39.640625 0 L 4.390625 0 L 4.390625 -43.90625 L 38.828125 -43.90625 L 38.828125 -34.3125 L 16.6875 -34.3125 L 16.6875 -26.90625 L 36.203125 -26.90625 L 36.203125 -17.625 L 16.6875 -17.625 L 16.6875 -9.59375 Z M 39.640625 -9.59375 "/></g></g></g></svg>